<svg width="44" height="43" viewBox="0 0 44 43" fill="none" xmlns="http://www.w3.org/2000/svg">
<g clip-path="url(#clip0_668_399)">
<path d="M32.0781 20.2636C28.2752 20.2636 24.9224 22.1608 22.8644 25.0419L17.5357 22.1277C17.9107 21.1553 18.1367 20.1091 18.1367 19.0039C18.1367 17.6477 17.8037 16.3771 17.2542 15.2282L27.2074 8.56426C28.1236 9.50908 29.4008 10.1015 30.8184 10.1015C33.5974 10.1015 35.8574 7.84153 35.8574 5.0625C35.8574 2.28347 33.5974 0.0234375 30.8184 0.0234375C28.0393 0.0234375 25.7793 2.28347 25.7793 5.0625C25.7793 5.51425 25.8584 5.94401 25.9702 6.36098L15.8511 13.1355C14.2357 11.3387 11.9189 10.1855 9.31836 10.1855C4.45645 10.1855 0.5 14.142 0.5 19.0039C0.5 22.5082 2.57074 25.5166 5.53906 26.9378V24.0429C5.53906 21.9591 7.2345 20.2636 9.31836 20.2636C7.92934 20.2636 6.79883 19.1331 6.79883 17.7441C6.79883 16.3551 7.92934 15.2246 9.31836 15.2246C10.7074 15.2246 11.8379 16.3551 11.8379 17.7441C11.8379 19.1331 10.7074 20.2636 9.31836 20.2636C11.4022 20.2636 13.0977 21.9591 13.0977 24.0429V26.9378C14.3646 26.3312 15.4518 25.4231 16.3005 24.3231L21.6201 27.232C21.0558 28.5778 20.7402 30.0531 20.7402 31.6015C20.7402 35.5235 22.744 39.0676 25.7793 41.1042V39.1601C25.7793 35.6872 28.6052 32.8613 32.0781 32.8613C29.9943 32.8613 28.2988 31.1659 28.2988 29.082C28.2988 26.9981 29.9943 25.3027 32.0781 25.3027C34.162 25.3027 35.8574 26.9981 35.8574 29.082C35.8574 31.1659 34.162 32.8613 32.0781 32.8613C35.551 32.8613 38.377 35.6872 38.377 39.1601V41.1042C41.4122 39.0676 43.5 35.5235 43.5 31.6015C43.5 25.3496 38.33 20.2636 32.0781 20.2636Z" fill="#24A1DF"/>
</g>
<defs>
<clipPath id="clip0_668_399">
<rect width="43" height="42" fill="white" transform="translate(0.5 0.0234375)"/>
</clipPath>
</defs>
</svg>
