<svg width="50" height="50" viewBox="0 0 50 50" fill="none" xmlns="http://www.w3.org/2000/svg">
<g clip-path="url(#clip0_668_382)">
<path d="M46.1504 24.6406H45.6719V38.9961H46.1504C47.9974 38.9961 49.5 37.4934 49.5 35.6464V27.9902C49.5 26.1432 47.9974 24.6406 46.1504 24.6406Z" fill="#24A1DF"/>
<path d="M0.5 27.9902V35.6464C0.5 37.4934 2.00263 38.9961 3.84961 38.9961H4.32812V24.6406H3.84961C2.00263 24.6406 0.5 26.1432 0.5 27.9902Z" fill="#24A1DF"/>
<path d="M37.5371 17.9414H12.4629C9.55581 17.9414 7.19922 20.298 7.19922 23.205V40.4316C7.19922 43.3387 9.55581 45.6953 12.4629 45.6953H28.4506L34.8151 49.3321C35.7722 49.8789 36.9629 49.188 36.9629 48.0857V45.6953H37.5371C40.4442 45.6953 42.8008 43.3387 42.8008 40.4316V23.205C42.8008 20.298 40.4442 17.9414 37.5371 17.9414ZM16.8652 27.9902C16.8652 28.783 16.2225 29.4257 15.4297 29.4257C14.6369 29.4257 13.9941 28.783 13.9941 27.9902C13.9941 25.6155 15.9261 23.6836 18.3008 23.6836C20.6755 23.6836 22.6074 25.6155 22.6074 27.9902C22.6074 28.783 21.9647 29.4257 21.1719 29.4257C20.3791 29.4257 19.7363 28.783 19.7363 27.9902C19.7363 27.1986 19.0923 26.5546 18.3008 26.5546C17.5092 26.5546 16.8652 27.1986 16.8652 27.9902ZM30.6323 37.6185C29.0795 39.1714 27.0397 39.9477 25 39.9477C22.9603 39.9477 20.9206 39.1714 19.3677 37.6185C18.8071 37.058 18.8071 36.149 19.3677 35.5884C19.9282 35.0278 20.8372 35.0278 21.3978 35.5884C23.3841 37.5746 26.6159 37.5746 28.6021 35.5884C29.1626 35.0278 30.0716 35.0278 30.6322 35.5884C31.1929 36.149 31.1929 37.058 30.6323 37.6185ZM34.5703 29.4257C33.7775 29.4257 33.1348 28.783 33.1348 27.9902C33.1348 27.1986 32.4908 26.5546 31.6992 26.5546C30.9077 26.5546 30.2637 27.1986 30.2637 27.9902C30.2637 28.783 29.6209 29.4257 28.8281 29.4257C28.0353 29.4257 27.3926 28.783 27.3926 27.9902C27.3926 25.6155 29.3245 23.6836 31.6992 23.6836C34.0739 23.6836 36.0059 25.6155 36.0059 27.9902C36.0059 28.783 35.3631 29.4257 34.5703 29.4257Z" fill="#24A1DF"/>
<path d="M33.6132 12.1992H33.1347V8.88981C34.8056 8.29721 36.0058 6.70156 36.0058 4.83008C36.0058 2.4554 34.0738 0.523438 31.6991 0.523438C29.3244 0.523438 27.3925 2.4554 27.3925 4.83008C27.3925 6.70156 28.5927 8.29721 30.2636 8.88981V12.1992H19.7362V8.88981C21.4071 8.29721 22.6073 6.70156 22.6073 4.83008C22.6073 2.4554 20.6754 0.523438 18.3007 0.523438C15.926 0.523438 13.9941 2.4554 13.9941 4.83008C13.9941 6.70156 15.1943 8.29721 16.8651 8.88981V12.1992H16.3866C14.5152 12.1992 12.9195 13.3994 12.3269 15.0703H37.6729C37.0803 13.3994 35.4847 12.1992 33.6132 12.1992Z" fill="#24A1DF"/>
</g>
<defs>
<clipPath id="clip0_668_382">
<rect width="49" height="49" fill="white" transform="translate(0.5 0.523438)"/>
</clipPath>
</defs>
</svg>
