<svg width="48" height="48" viewBox="0 0 48 48" fill="none" xmlns="http://www.w3.org/2000/svg">
<path fill-rule="evenodd" clip-rule="evenodd" d="M29.7291 38.9199V45.7949C29.7291 46.0988 29.8498 46.3903 30.0647 46.6051C30.2796 46.82 30.571 46.9407 30.8749 46.9407C31.1788 46.9407 31.4703 46.82 31.6851 46.6051C31.9 46.3903 32.0208 46.0988 32.0208 45.7949V38.9199C32.0208 38.616 31.9 38.3246 31.6851 38.1097C31.4703 37.8948 31.1788 37.7741 30.8749 37.7741C30.571 37.7741 30.2796 37.8948 30.0647 38.1097C29.8498 38.3246 29.7291 38.616 29.7291 38.9199ZM21.7655 31.1282C21.7902 31.6101 21.7132 32.0917 21.5395 32.5418C21.3657 32.9919 21.0992 33.4004 20.7572 33.7407L16.7124 37.7741C16.3931 38.0945 16.0136 38.3488 15.5958 38.5223C15.1779 38.6958 14.7299 38.7851 14.2775 38.7851C13.8251 38.7851 13.3771 38.6958 12.9593 38.5223C12.5415 38.3488 12.162 38.0945 11.8426 37.7741L10.2499 36.1814C9.92945 35.862 9.67518 35.4825 9.50168 35.0647C9.32818 34.6469 9.23887 34.1989 9.23887 33.7465C9.23887 33.2941 9.32818 32.8461 9.50168 32.4282C9.67518 32.0104 9.92945 31.6309 10.2499 31.3116L14.2947 27.2668C14.6386 26.9366 15.0474 26.6815 15.4952 26.5177C15.943 26.354 16.42 26.2852 16.8958 26.3157L20.6655 22.4772C19.5785 21.392 18.1052 20.7824 16.5692 20.7824C15.0331 20.7824 13.5599 21.392 12.4728 22.4772L5.07075 29.822C3.98551 30.909 3.37597 32.3823 3.37597 33.9183C3.37597 35.4544 3.98551 36.9277 5.07075 38.0147L10.0093 42.9532C11.0963 44.0385 12.5696 44.648 14.1056 44.648C15.6417 44.648 17.115 44.0385 18.202 42.9532L25.6041 35.5512C26.6893 34.4641 27.2989 32.9909 27.2989 31.4548C27.2989 29.9188 26.6893 28.4455 25.6041 27.3585L21.7655 31.1282ZM38.0822 39.7335L41.5197 43.171C41.7355 43.3867 42.0281 43.5079 42.3333 43.5079C42.6384 43.5079 42.931 43.3867 43.1468 43.171C43.3626 42.9552 43.4838 42.6626 43.4838 42.3574C43.4838 42.0523 43.3626 41.7596 43.1468 41.5439L39.7093 38.1064C39.6025 37.9995 39.4756 37.9148 39.336 37.857C39.1965 37.7992 39.0468 37.7694 38.8958 37.7694C38.7447 37.7694 38.5951 37.7992 38.4555 37.857C38.3159 37.9148 38.189 37.9995 38.0822 38.1064C37.9754 38.2132 37.8906 38.34 37.8328 38.4796C37.775 38.6192 37.7452 38.7688 37.7452 38.9199C37.7452 39.071 37.775 39.2206 37.8328 39.3602C37.8906 39.4998 37.9754 39.6266 38.0822 39.7335ZM15.303 29.4782L11.8655 32.9157C11.6521 33.1304 11.5323 33.4208 11.5323 33.7236C11.5323 34.0263 11.6521 34.3167 11.8655 34.5314L13.4926 36.1585C13.7073 36.3719 13.9977 36.4917 14.3004 36.4917C14.6032 36.4917 14.8936 36.3719 15.1083 36.1585L18.5458 32.721C18.1555 32.6167 17.7997 32.4111 17.5145 32.1251L15.8989 30.5095C15.6129 30.2243 15.4073 29.8685 15.303 29.4782ZM45.7708 29.7532H38.8958C38.5919 29.7532 38.3004 29.874 38.0855 30.0889C37.8706 30.3037 37.7499 30.5952 37.7499 30.8991C37.7499 31.203 37.8706 31.4944 38.0855 31.7093C38.3004 31.9242 38.5919 32.0449 38.8958 32.0449H45.7708C46.0746 32.0449 46.3661 31.9242 46.581 31.7093C46.7959 31.4944 46.9166 31.203 46.9166 30.8991C46.9166 30.5952 46.7959 30.3037 46.581 30.0889C46.3661 29.874 46.0746 29.7532 45.7708 29.7532ZM29.7291 19.9678L28.1135 18.3522L17.5718 28.8824L19.1989 30.5095L29.7291 19.9678ZM22.453 20.6897L26.2916 16.9199C26.2653 16.4362 26.3415 15.9524 26.5153 15.5002C26.689 15.0479 26.9564 14.6376 27.2999 14.296L31.2874 10.2741C31.6068 9.95362 31.9863 9.69935 32.4041 9.52585C32.8219 9.35236 33.2699 9.26305 33.7223 9.26305C34.1747 9.26305 34.6227 9.35236 35.0405 9.52585C35.4584 9.69935 35.8379 9.95362 36.1572 10.2741L37.7499 11.8668C38.0704 12.1861 38.3247 12.5656 38.4982 12.9835C38.6717 13.4013 38.761 13.8493 38.761 14.3017C38.761 14.7541 38.6717 15.2021 38.4982 15.6199C38.3247 16.0377 38.0704 16.4172 37.7499 16.7366L33.7051 20.7814C33.3635 21.1249 32.9531 21.3922 32.5009 21.566C32.0487 21.7398 31.5649 21.816 31.0812 21.7897L27.3343 25.6282C28.4213 26.7135 29.8946 27.323 31.4306 27.323C32.9667 27.323 34.44 26.7135 35.527 25.6282L42.9291 18.2262C44.0143 17.1391 44.6239 15.6659 44.6239 14.1298C44.6239 12.5938 44.0143 11.1205 42.9291 10.0335L37.9905 5.09492C36.9035 4.00968 35.4302 3.40014 33.8942 3.40014C32.3581 3.40014 30.8849 4.00968 29.7978 5.09492L22.3958 12.497C21.3105 13.584 20.701 15.0573 20.701 16.5934C20.701 18.1294 21.3105 19.6027 22.3958 20.6897H22.453ZM28.7437 16.1064C29.1163 16.2146 29.4554 16.4157 29.7291 16.6907L31.3447 18.3064C31.6198 18.5801 31.8209 18.9191 31.9291 19.2918C32.0124 19.2443 32.0894 19.1866 32.1583 19.1199C33.3041 17.9053 34.9999 16.2668 36.2145 15.0637C36.4279 14.849 36.5477 14.5586 36.5477 14.2559C36.5477 13.9531 36.4279 13.6627 36.2145 13.448L34.5874 11.821C34.3727 11.6075 34.0823 11.4878 33.7796 11.4878C33.4769 11.4878 33.1865 11.6075 32.9718 11.821L28.9155 15.8772C28.8489 15.9461 28.7911 16.0231 28.7437 16.1064ZM2.22909 18.2949H9.10409C9.40798 18.2949 9.69943 18.1742 9.91431 17.9593C10.1292 17.7444 10.2499 17.453 10.2499 17.1491C10.2499 16.8452 10.1292 16.5537 9.91431 16.3389C9.69943 16.124 9.40798 16.0032 9.10409 16.0032H2.22909C1.92519 16.0032 1.63374 16.124 1.41886 16.3389C1.20397 16.5537 1.08325 16.8452 1.08325 17.1491C1.08325 17.453 1.20397 17.7444 1.41886 17.9593C1.63374 18.1742 1.92519 18.2949 2.22909 18.2949ZM18.2708 9.12826V2.25326C18.2708 1.94936 18.15 1.65792 17.9351 1.44303C17.7203 1.22814 17.4288 1.10742 17.1249 1.10742C16.821 1.10742 16.5296 1.22814 16.3147 1.44303C16.0998 1.65792 15.9791 1.94936 15.9791 2.25326V9.12826C15.9791 9.43215 16.0998 9.7236 16.3147 9.93848C16.5296 10.1534 16.821 10.2741 17.1249 10.2741C17.4288 10.2741 17.7203 10.1534 17.9351 9.93848C18.15 9.7236 18.2708 9.43215 18.2708 9.12826ZM9.91763 8.31472L6.48013 4.87721C6.37329 4.77038 6.24646 4.68563 6.10687 4.62781C5.96728 4.56999 5.81767 4.54023 5.66659 4.54023C5.5155 4.54023 5.36589 4.56999 5.2263 4.62781C5.08671 4.68563 4.95988 4.77038 4.85304 4.87721C4.74621 4.98405 4.66146 5.11088 4.60364 5.25047C4.54582 5.39006 4.51606 5.53967 4.51606 5.69076C4.51606 5.84185 4.54582 5.99145 4.60364 6.13104C4.66146 6.27063 4.74621 6.39746 4.85304 6.5043L8.29054 9.9418C8.50631 10.1576 8.79895 10.2788 9.10409 10.2788C9.40922 10.2788 9.70186 10.1576 9.91763 9.9418C10.1334 9.72603 10.2546 9.43339 10.2546 9.12826C10.2546 8.82312 10.1334 8.53048 9.91763 8.31472Z" fill="#24A1DF"/>
</svg>
