<svg width="38" height="38" viewBox="0 0 38 38" fill="none" xmlns="http://www.w3.org/2000/svg">
<g clip-path="url(#clip0_668_432)">
<mask id="mask0_668_432" style="mask-type:luminance" maskUnits="userSpaceOnUse" x="0" y="0" width="38" height="38">
<path d="M37.5 0.5H0.5V37.5H37.5V0.5Z" fill="white"/>
</mask>
<g mask="url(#mask0_668_432)">
<path d="M0.5 20.1562H7.07617V37.5H0.5V20.1562Z" fill="#24A1DF"/>
<path d="M29.8398 0.5C25.6563 0.5 22.252 3.97663 22.252 8.16016C22.252 12.3437 25.6563 15.8203 29.8398 15.8203C34.0234 15.8203 37.5 12.3437 37.5 8.16016C37.5 3.97663 34.0234 0.5 29.8398 0.5ZM28.7559 11.861L25.8215 8.92661L27.3543 7.39378L28.7559 8.7953L32.3254 5.22574L33.8582 6.75856L28.7559 11.861Z" fill="#24A1DF"/>
<path d="M16.832 4.9082H15.748V11.0596C15.748 15.1954 13.0661 18.7786 9.24414 20.0892V35.332H11.4121C13.1397 36.7304 15.3161 37.5 17.5392 37.5H28.7707L29.1264 34.248H22.252V32.0801H29.3635L29.7192 28.8281H22.252V26.6602H29.9563L30.312 23.4082H22.252V21.2402H30.5491L30.9047 17.9883H20.084V8.16016C20.084 6.36414 18.628 4.9082 16.832 4.9082Z" fill="#24A1DF"/>
</g>
</g>
<defs>
<clipPath id="clip0_668_432">
<rect width="37" height="37" fill="white" transform="translate(0.5 0.5)"/>
</clipPath>
</defs>
</svg>
