<svg width="38" height="40" viewBox="0 0 38 40" fill="none" xmlns="http://www.w3.org/2000/svg">
<g clip-path="url(#clip0_668_419)">
<path d="M9.38975 17.6016C11.5761 17.6016 13.3489 19.4334 13.3489 21.738C13.3489 23.8061 11.7534 26.938 9.38975 26.938C5.19429 26.938 3.2443 17.6016 9.38975 17.6016Z" fill="#24A1DF"/>
<path d="M17.3078 30.543L17.8396 38.343C17.8396 38.5203 17.7806 38.6385 17.6624 38.8157C17.5442 38.9339 17.3669 38.993 17.2487 38.993H1.53055C1.35327 38.993 1.23509 38.9339 1.11691 38.8157C0.93964 38.6976 0.880549 38.5203 0.93964 38.343L1.47146 30.3066C1.58964 29.4794 1.70782 28.4748 3.00782 28.0612C4.18964 27.7066 5.25327 27.4703 6.73055 27.293C6.90782 27.293 7.14418 27.3521 7.26236 27.5294C7.38055 27.7066 7.43964 27.8839 7.38055 28.0612C6.61236 30.6021 7.20327 32.8476 9.38964 35.093C11.576 32.9066 12.1669 30.7203 11.3987 28.1203C11.3396 27.943 11.3987 27.7066 11.5169 27.5885C11.6351 27.4112 11.8124 27.3521 12.0487 27.3521C13.4669 27.5294 14.5306 27.7657 15.7715 28.1203C17.0715 28.4748 17.2487 29.5385 17.3669 30.4248L17.3078 30.543Z" fill="#24A1DF"/>
<path d="M27.9442 17.6016C30.1306 17.6016 31.9033 19.4334 31.9033 21.738C31.9033 23.8061 30.3078 26.938 27.9442 26.938C23.8078 26.938 21.8578 17.6016 27.9442 17.6016Z" fill="#24A1DF"/>
<path d="M36.3941 38.343C36.3941 38.5203 36.3351 38.6385 36.2169 38.8157C36.1578 38.9339 35.9805 38.993 35.8032 38.993H20.0851C19.9078 38.993 19.7896 38.9339 19.6714 38.8157C19.5532 38.6976 19.4941 38.5203 19.4941 38.343L20.026 30.3066C20.1441 29.4794 20.2623 28.4748 21.5623 28.0612C22.7441 27.7066 23.8078 27.4703 25.2851 27.293C25.4623 27.293 25.6987 27.3521 25.8169 27.5294C25.9351 27.7066 25.9941 27.8839 25.9351 28.0612C25.1078 30.6021 25.7578 32.8476 27.9441 35.093C30.1305 32.8476 30.7805 30.6612 29.9532 28.0612C29.8941 27.8839 29.9532 27.6476 30.0714 27.5294C30.1896 27.3521 30.426 27.293 30.6032 27.293C32.0214 27.4703 33.0851 27.7066 34.326 28.0612C35.626 28.4157 35.8032 29.4794 35.9214 30.3657V30.543L36.3941 38.343Z" fill="#24A1DF"/>
<path d="M13.3488 2.29688C10.867 2.29688 8.62156 3.53778 7.26247 5.60596C5.96247 7.61506 5.66701 10.0969 6.55338 12.2833L5.43065 16.1242C5.37156 16.3015 5.43065 16.5378 5.54883 16.7151C5.66701 16.8924 5.90338 16.9515 6.08065 16.8924L9.86247 16.1242C10.9852 16.7151 12.167 17.0106 13.3488 17.0106C14.5898 17.0106 15.8307 16.656 17.0125 16.006C19.317 14.706 20.6761 12.2833 20.6761 9.68324C20.6761 5.54687 17.367 2.29688 13.3488 2.29688ZM16.6579 12.9333H10.3352C9.98065 12.9333 9.74429 12.6378 9.74429 12.3424C9.74429 12.0469 9.98065 11.7515 10.3352 11.7515H16.6579C17.0125 11.7515 17.2488 12.0469 17.2488 12.3424C17.2488 12.6969 16.9534 12.9333 16.6579 12.9333ZM16.6579 10.2151H10.3352C9.98065 10.2151 9.74429 9.97869 9.74429 9.62416C9.74429 9.26961 9.98065 9.03325 10.3352 9.03325H16.6579C17.0125 9.03325 17.2488 9.26961 17.2488 9.62416C17.2488 9.97869 16.9534 10.2151 16.6579 10.2151ZM16.6579 7.43779H10.3352C9.98065 7.43779 9.74429 7.14233 9.74429 6.84688C9.74429 6.49234 9.98065 6.25596 10.3352 6.25596H16.6579C17.0125 6.25596 17.2488 6.49234 17.2488 6.84688C17.2488 7.14233 16.9534 7.43779 16.6579 7.43779Z" fill="#24A1DF"/>
<path d="M32.7896 15.003L31.6669 11.1621C32.5533 8.91669 32.2578 6.43487 30.9578 4.42578C29.5987 2.41669 27.2942 1.17578 24.8123 1.17578C22.6851 1.17578 20.7351 2.12124 19.376 3.59851C20.9123 5.13487 21.8578 7.26215 21.8578 9.56669C21.8578 11.2803 21.326 12.9348 20.4396 14.2939C22.6851 16.0076 25.8169 16.303 28.3578 14.8848L32.1396 15.653C32.3169 15.7121 32.5533 15.653 32.6714 15.4757C32.7896 15.4167 32.8487 15.1803 32.7896 15.003ZM25.7578 12.6394C25.7578 12.9939 25.5214 13.2303 25.1669 13.2303C24.8714 13.2303 24.576 12.9939 24.576 12.6394C24.576 12.2848 24.8714 12.0485 25.1669 12.0485C25.4623 12.0485 25.7578 12.2848 25.7578 12.6394ZM25.9351 9.5076C25.8169 9.62578 25.7578 9.74396 25.7578 9.92124V10.6303C25.7578 10.9257 25.5214 11.2212 25.1669 11.2212C24.8714 11.2212 24.576 10.9257 24.576 10.6303V9.98033C24.576 9.33033 24.9305 8.79851 25.226 8.62124C25.4033 8.50306 26.4078 7.61669 26.4078 6.37578C26.4078 4.72124 23.926 4.72124 23.926 6.37578V6.9076C23.926 7.26215 23.6896 7.49851 23.3351 7.49851C22.9805 7.49851 22.7442 7.26215 22.7442 6.9076V6.31669C22.7442 5.37124 23.1578 4.83942 23.5123 4.48487C24.9305 3.24396 27.5896 3.95306 27.5896 6.31669C27.5896 7.91215 26.4669 9.09396 25.9351 9.5076Z" fill="#24A1DF"/>
</g>
<defs>
<clipPath id="clip0_668_419">
<rect width="37" height="39" fill="white" transform="translate(0.166992 0.583984)"/>
</clipPath>
</defs>
</svg>
