<svg width="49" height="52" viewBox="0 0 49 52" fill="none" xmlns="http://www.w3.org/2000/svg">
<g clip-path="url(#clip0_668_526)">
<path d="M46.2918 36.5213C46.9185 36.5213 47.4265 36.0133 47.4265 35.3867C47.4265 34.76 46.9185 34.252 46.2918 34.252C45.6652 34.252 45.1572 34.76 45.1572 35.3867C45.1572 36.0133 45.6652 36.5213 46.2918 36.5213Z" fill="#24A1DF"/>
<path d="M24.167 21.2031V33.6674C25.4425 33.0599 26.5934 32.232 27.5708 31.2335V21.2031H24.167Z" fill="#24A1DF"/>
<path d="M18.4939 17.2311V14.3945H15.0901V34.1367C16.1858 34.5243 17.3265 34.7496 18.4939 34.8042V17.2311Z" fill="#24A1DF"/>
<path d="M23.0323 17.7988H19.6284V34.8041C20.8165 34.7483 21.9594 34.5172 23.0323 34.1366V20.6354V17.7988Z" fill="#24A1DF"/>
<path d="M38.5591 17.0254C42.6987 17.0254 46.0666 13.623 46.0666 9.441C46.0666 8.58993 45.9614 7.84642 45.757 7.2192L38.8302 9.74327C38.7667 9.76641 38.701 9.77753 38.6361 9.77753C38.4871 9.77753 38.3411 9.71887 38.2326 9.60938C38.0767 9.4519 38.0269 9.21794 38.1049 9.01053L40.6656 2.20136C39.9777 2.02243 39.2835 1.93359 38.559 1.93359C34.3771 1.93359 30.9746 5.30147 30.9746 9.441C30.9747 13.623 34.377 17.0254 38.5591 17.0254Z" fill="#24A1DF"/>
<path d="M3.74374 3.04853C4.36937 3.04853 4.87836 2.53954 4.87836 1.91391C4.87836 1.28829 4.36937 0.779297 3.74374 0.779297C3.11812 0.779297 2.60913 1.28829 2.60913 1.91391C2.60913 2.53954 3.11812 3.04853 3.74374 3.04853Z" fill="#24A1DF"/>
<path d="M46.958 5.57408C46.0283 3.5329 44.3858 1.89157 42.3438 0.962891L39.6016 8.25483L46.958 5.57408Z" fill="#24A1DF"/>
<path d="M7.14765 43.8945C5.89639 43.8945 4.87842 44.9125 4.87842 46.1637C4.87842 47.4149 5.89639 48.433 7.14765 48.433C8.3989 48.433 9.41688 47.4149 9.41688 46.1637C9.41688 44.9125 8.3989 43.8945 7.14765 43.8945Z" fill="#24A1DF"/>
<path d="M38.5205 27.5407C38.5205 28.7918 39.5386 29.8099 40.7897 29.8099C42.0409 29.8099 43.059 28.7918 43.059 27.5407C43.059 26.2895 42.0409 25.2715 40.7897 25.2715C39.5386 25.2715 38.5205 26.2895 38.5205 27.5407Z" fill="#24A1DF"/>
<path d="M44.0226 47.2988C43.7098 47.2988 43.4553 47.5532 43.4553 47.8662C43.4553 48.179 43.7098 48.4335 44.0226 48.4335C44.3355 48.4335 44.5899 48.179 44.5899 47.8662C44.5899 47.5533 44.3355 47.2988 44.0226 47.2988Z" fill="#24A1DF"/>
<path d="M35.717 31.4473C33.9472 34.884 31.1444 37.7046 27.7219 39.4982L30.7848 42.5612L38.8078 34.5383L35.717 31.4473Z" fill="#24A1DF"/>
<path d="M13.9554 13.8278V4.18359H10.5515V31.2416C11.5323 32.2418 12.6942 33.0701 13.9554 33.6709V13.8278Z" fill="#24A1DF"/>
<path d="M46.8308 44.9693L38.4068 36.5449L32.7905 42.1612L41.2147 50.5853C42.763 52.1336 45.2825 52.1336 46.8308 50.5853C48.3792 49.0371 48.3792 46.5176 46.8308 44.9693ZM44.0228 49.5695C43.0843 49.5695 42.3209 48.806 42.3209 47.8675C42.3209 46.9291 43.0843 46.1656 44.0228 46.1656C44.9612 46.1656 45.7247 46.9291 45.7247 47.8675C45.7247 48.806 44.9612 49.5695 44.0228 49.5695Z" fill="#24A1DF"/>
<path d="M36.6477 22.9049C36.6477 21.1437 36.3872 19.4058 35.8738 17.7349C32.3763 16.5998 29.84 13.3118 29.84 9.44087C29.84 9.29938 29.8435 9.15846 29.8503 9.01811C26.7417 6.59696 23.0181 5.31836 19.0612 5.31836C17.7192 5.31836 16.3857 5.47108 15.09 5.76994V10.4733C16.3694 10.0643 17.7015 9.85671 19.0612 9.85671C26.2559 9.85671 32.1092 15.71 32.1092 22.9047C32.1092 26.3373 30.7763 29.4639 28.6016 31.7957C28.5741 31.8351 28.541 31.8691 28.5047 31.9C27.2067 33.2621 25.6179 34.3447 23.8388 35.047C23.8192 35.0562 23.7986 35.0634 23.7778 35.0703C22.3141 35.6398 20.7236 35.9528 19.061 35.9528C17.4249 35.9528 15.8285 35.653 14.3164 35.0626C14.3121 35.0609 14.3078 35.0592 14.3036 35.0574C14.3026 35.0569 14.3016 35.0565 14.3006 35.0561C12.5234 34.359 10.8885 33.2542 9.57202 31.8598C9.5719 31.8597 9.57213 31.8598 9.57202 31.8598C7.27726 29.4292 6.01307 26.2484 6.01307 22.9049C6.01307 19.6376 7.22053 16.5265 9.41692 14.118V8.19937C4.49461 11.4364 1.47461 16.9811 1.47461 22.9049C1.47461 32.6022 9.36393 40.4915 19.0612 40.4915C28.7585 40.4915 36.6477 32.6022 36.6477 22.9049Z" fill="#24A1DF"/>
</g>
<defs>
<clipPath id="clip0_668_526">
<rect width="48" height="51" fill="white" transform="translate(0.666992 0.763672)"/>
</clipPath>
</defs>
</svg>
