<svg width="39" height="45" viewBox="0 0 39 45" fill="none" xmlns="http://www.w3.org/2000/svg">
<g clip-path="url(#clip0_668_513)">
<path d="M11.46 33.7227C11.5206 33.7195 13.079 33.6367 13.1397 33.6367C13.2684 33.6371 13.395 33.6693 13.5082 33.7307C13.6214 33.7921 13.7176 33.8806 13.7881 33.9883L16.9522 38.7695L14.2725 29.0195L11.46 33.7227Z" fill="#24A1DF"/>
<path d="M17.4912 34.8398L19.6787 42.8007L21.8662 34.8398H17.4912Z" fill="#24A1DF"/>
<path d="M22.6397 25.2227C21.8703 26.0133 20.8344 26.4895 19.7334 26.5586C18.5394 26.4545 17.4172 25.9444 16.5537 25.1133C16.5381 25.1055 16.5303 25.0899 16.5147 25.0742C16.2531 25.9662 15.9213 26.8361 15.5225 27.6758L17.0615 33.2774H22.2959L23.5706 27.6745C23.1791 26.8904 22.8672 26.069 22.6397 25.2227Z" fill="#24A1DF"/>
<path d="M25.5693 33.9883C25.6455 33.877 25.7483 33.7865 25.8684 33.725C25.9885 33.6636 26.122 33.6333 26.2568 33.6367L27.8975 33.7227L25.085 29.0195L22.4053 38.7695L25.5693 33.9883Z" fill="#24A1DF"/>
<path d="M29.9912 34.1757L25.96 27.4336C26.6377 27.481 27.3167 27.3602 27.9365 27.082C31.0537 27.9805 34.9209 29.3633 36.1943 30.9258C37.936 33.0786 38.19 40.0235 38.2361 43.1309C38.2369 43.1827 38.2274 43.2341 38.2082 43.2822C38.1889 43.3303 38.1603 43.3741 38.1239 43.411C38.0875 43.4479 38.0442 43.4772 37.9964 43.4972C37.9486 43.5171 37.8973 43.5274 37.8455 43.5274H21.1397L26.624 35.2227L29.2803 35.3555C29.4218 35.3635 29.5627 35.3327 29.688 35.2666C29.8133 35.2004 29.9182 35.1013 29.9913 34.9799C30.0645 34.8585 30.1031 34.7195 30.1031 34.5778C30.1031 34.4361 30.0644 34.2971 29.9912 34.1757Z" fill="#24A1DF"/>
<path d="M14.3973 26.3477C14.7255 25.5154 14.997 24.6619 15.2098 23.793C13.9442 22.2635 13.1009 20.4294 12.7637 18.473C12.7485 18.3921 12.7061 18.3188 12.6436 18.2652C12.0823 17.7569 11.6444 17.127 11.3634 16.4237C11.0825 15.7204 10.9658 14.9623 11.0223 14.207C11.0298 14.039 11.0918 13.878 11.1989 13.7483C11.306 13.6186 11.4525 13.5273 11.6161 13.4883C12.7778 13.1765 13.8313 12.5508 14.6609 11.6799C15.4905 10.8089 16.0643 9.72629 16.3192 8.55078C16.3514 8.39573 16.4258 8.25259 16.5342 8.1371C16.6425 8.02162 16.7806 7.93829 16.9333 7.89628C17.086 7.85427 17.2473 7.85522 17.3995 7.89902C17.5517 7.94283 17.6888 8.02778 17.7958 8.14453C19.7019 10.2807 22.3503 11.6105 25.202 11.8633C26.191 11.8999 27.153 12.1963 27.9911 12.7227C29.3517 13.8649 28.345 16.9522 26.95 18.212C26.8959 18.259 26.8579 18.3218 26.8414 18.3917C26.3143 20.4425 25.326 22.3459 23.952 23.9571L23.9286 23.9805C24.2373 25.3917 25.886 26.7308 28.2567 25.1289C30.3203 23.7777 31.9079 21.813 32.7958 19.5118C33.5612 17.5099 32.9469 15.971 32.1161 13.7383C31.0176 10.8726 29.8233 5.65572 27.2333 3.34768C25.6239 1.918 24.4989 1.37112 22.9989 1.30081C21.593 0.591293 19.9969 0.350374 18.4442 0.613311C10.7345 1.55303 6.85827 13.3008 6.31921 17.4805C5.84056 21.1404 6.99698 22.5652 8.38171 23.4883C10.3562 24.8046 10.3147 25.891 11.8583 26.3243C12.4705 26.4553 13.105 26.4392 13.7098 26.2774C13.9413 26.2624 14.1737 26.2861 14.3973 26.3477Z" fill="#24A1DF"/>
<path d="M18.2178 43.5274H1.49986C1.44712 43.5275 1.3949 43.5169 1.34637 43.4962C1.29784 43.4756 1.25401 43.4453 1.21752 43.4072C1.18103 43.3691 1.15264 43.3241 1.13408 43.2747C1.11552 43.2253 1.10716 43.1727 1.10952 43.12C1.24511 40.0275 1.73495 33.1867 3.44432 31.0742C4.53026 29.7383 7.84276 28.3867 10.5225 27.457C11.3077 27.8907 12.2116 28.0605 13.1006 27.9414L9.36624 34.1758C9.29308 34.2971 9.25441 34.4361 9.25439 34.5778C9.25437 34.7195 9.29302 34.8585 9.36616 34.9799C9.43929 35.1013 9.54416 35.2004 9.66945 35.2666C9.79474 35.3327 9.93571 35.3635 10.0772 35.3555L12.7334 35.2227L18.2178 43.5274Z" fill="#24A1DF"/>
<path d="M25.7412 17.1836C26.9011 16.268 27.2928 14.1802 26.9912 13.918C26.3581 13.621 25.6738 13.4486 24.9756 13.4102C22.1782 13.1567 19.5461 11.9741 17.499 10.0508C17.0796 11.1566 16.423 12.157 15.5754 12.9817C14.7277 13.8064 13.7097 14.4353 12.5928 14.8242C12.6172 15.3007 12.746 15.766 12.9701 16.1872C13.1942 16.6084 13.5081 16.9753 13.8897 17.2617C13.9793 17.3223 14.0554 17.4007 14.1133 17.4922C14.1711 17.5836 14.2093 17.686 14.2256 17.793C14.514 20.1859 15.7077 22.3776 17.5615 23.918C19.5537 25.582 20.3819 25.168 22.0772 23.6367C23.7226 22.0351 24.8701 19.9923 25.3818 17.7539C25.3958 17.6382 25.4353 17.527 25.4975 17.4284C25.5596 17.3298 25.6429 17.2462 25.7412 17.1836Z" fill="#24A1DF"/>
</g>
<defs>
<clipPath id="clip0_668_513">
<rect width="38" height="44" fill="white" transform="translate(0.666992 0.0234375)"/>
</clipPath>
</defs>
</svg>
