<svg width="36" height="36" viewBox="0 0 36 36" fill="none" xmlns="http://www.w3.org/2000/svg">
<g clip-path="url(#clip0_668_571)">
<mask id="mask0_668_571" style="mask-type:luminance" maskUnits="userSpaceOnUse" x="0" y="0" width="36" height="36">
<path d="M35.167 0.523438H0.166992V35.5234H35.167V0.523438Z" fill="white"/>
</mask>
<g mask="url(#mask0_668_571)">
<path d="M25.561 2.7793H1.50293L13.4987 10.7765L25.561 2.7793Z" fill="#24A1DF"/>
<path d="M19.9542 16.8613L26.8954 13.4187V4.35516L14.0637 12.8624C13.7207 13.0898 13.2731 13.0909 12.9283 12.861L0.166992 4.35352V22.2616C0.166992 22.8277 0.626365 23.287 1.19238 23.287H10.4892V21.3046C10.4892 18.8546 12.4826 16.8613 14.9326 16.8613H19.9542Z" fill="#24A1DF"/>
<path d="M33.4586 19.8518L34.5524 19.3733C35.0712 19.1463 35.3078 18.5417 35.0808 18.0229C34.8538 17.5041 34.2491 17.2673 33.7304 17.4945L32.6366 17.973C32.1178 18.2 31.8812 18.8046 32.1082 19.3234C32.3354 19.8426 32.9403 20.0787 33.4586 19.8518Z" fill="#24A1DF"/>
<path d="M34.5524 26.6546L33.4586 26.1761C32.9398 25.9491 32.3352 26.1857 32.1082 26.7045C31.8812 27.2233 32.1178 27.8279 32.6366 28.0549L33.7304 28.5334C34.2492 28.7604 34.8539 28.5237 35.0808 28.005C35.3078 27.4861 35.0712 26.8816 34.5524 26.6546Z" fill="#24A1DF"/>
<path d="M34.1414 21.9883H33.0476C32.4813 21.9883 32.0222 22.4474 32.0222 23.0137C32.0222 23.58 32.4813 24.0391 33.0476 24.0391H34.1414C34.7077 24.0391 35.1668 23.58 35.1668 23.0137C35.1668 22.4474 34.7077 21.9883 34.1414 21.9883Z" fill="#24A1DF"/>
<path d="M14.9324 18.9129C13.6131 18.9129 12.5398 19.9862 12.5398 21.3054V24.7234C12.5398 25.865 13.3437 26.8218 14.415 27.059L13.5791 32.0744C13.475 32.6992 13.9576 33.2684 14.5906 33.2684H18.6921C19.1892 33.2684 19.6147 32.9119 19.7017 32.4224L20.628 27.2121L20.7429 27.2691V18.7598L20.4343 18.9129H14.9324Z" fill="#24A1DF"/>
<path d="M28.4905 14.9164L22.7937 17.7413V28.2843L28.4905 31.1091C29.1696 31.4459 29.9714 30.9515 29.9714 30.1905V15.8351C29.9714 15.0746 29.1707 14.579 28.4905 14.9164Z" fill="#24A1DF"/>
</g>
</g>
<defs>
<clipPath id="clip0_668_571">
<rect width="35" height="35" fill="white" transform="translate(0.166992 0.523438)"/>
</clipPath>
</defs>
</svg>
