<svg width="40" height="40" viewBox="0 0 40 40" fill="none" xmlns="http://www.w3.org/2000/svg">
<g clip-path="url(#clip0_668_478)">
<path d="M16.2393 21.166H23.0947V23.4511H16.2393V21.166Z" fill="#24A1DF"/>
<path d="M31.8072 23.4511H25.3799V24.5937C25.3799 25.2251 24.8687 25.7363 24.2373 25.7363H15.0967C14.4653 25.7363 13.9541 25.2251 13.9541 24.5937V23.4511H7.5268C6.04948 23.4511 4.74296 22.5094 4.27521 21.108L0.166992 8.78125V33.7343C0.166992 35.6244 1.70471 37.1621 3.59472 37.1621H35.7393C37.6293 37.1621 39.167 35.6244 39.167 33.7343V8.78215L35.0585 21.108C34.591 22.5094 33.2845 23.4511 31.8072 23.4511Z" fill="#24A1DF"/>
<path d="M24.2372 2.88477H15.0966C13.2066 2.88477 11.6689 4.42249 11.6689 6.3125V7.45508H2.13281L6.44217 20.3849C6.59839 20.8524 7.03459 21.166 7.52673 21.166H13.954V20.0234C13.954 19.392 14.4652 18.8808 15.0966 18.8808H24.2372C24.8686 18.8808 25.3798 19.392 25.3798 20.0234V21.166H31.8071C32.2993 21.166 32.7355 20.8524 32.8917 20.3849L37.2013 7.45508H27.665V6.3125C27.665 4.42249 26.1273 2.88477 24.2372 2.88477ZM13.954 7.45508V6.3125C13.954 5.682 14.4661 5.16992 15.0966 5.16992H24.2372C24.8677 5.16992 25.3798 5.682 25.3798 6.3125V7.45508H13.954Z" fill="#24A1DF"/>
</g>
<defs>
<clipPath id="clip0_668_478">
<rect width="39" height="39" fill="white" transform="translate(0.166992 0.523438)"/>
</clipPath>
</defs>
</svg>
