<svg width="44" height="43" viewBox="0 0 44 43" fill="none" xmlns="http://www.w3.org/2000/svg">
<g clip-path="url(#clip0_668_562)">
<path d="M31.7451 20.2636C27.9422 20.2636 24.5894 22.1608 22.5314 25.0419L17.2027 22.1277C17.5777 21.1553 17.8037 20.1091 17.8037 19.0039C17.8037 17.6477 17.4707 16.3771 16.9212 15.2282L26.8744 8.56426C27.7906 9.50908 29.0678 10.1015 30.4854 10.1015C33.2644 10.1015 35.5244 7.84153 35.5244 5.0625C35.5244 2.28347 33.2644 0.0234375 30.4854 0.0234375C27.7063 0.0234375 25.4463 2.28347 25.4463 5.0625C25.4463 5.51425 25.5254 5.94401 25.6372 6.36098L15.5181 13.1355C13.9027 11.3387 11.5859 10.1855 8.98535 10.1855C4.12344 10.1855 0.166992 14.142 0.166992 19.0039C0.166992 22.5082 2.23773 25.5166 5.20605 26.9378V24.0429C5.20605 21.9591 6.90149 20.2636 8.98535 20.2636C7.59633 20.2636 6.46582 19.1331 6.46582 17.7441C6.46582 16.3551 7.59633 15.2246 8.98535 15.2246C10.3744 15.2246 11.5049 16.3551 11.5049 17.7441C11.5049 19.1331 10.3744 20.2636 8.98535 20.2636C11.0692 20.2636 12.7647 21.9591 12.7647 24.0429V26.9378C14.0316 26.3312 15.1188 25.4231 15.9675 24.3231L21.2871 27.232C20.7228 28.5778 20.4072 30.0531 20.4072 31.6015C20.4072 35.5235 22.411 39.0676 25.4463 41.1042V39.1601C25.4463 35.6872 28.2722 32.8613 31.7451 32.8613C29.6613 32.8613 27.9658 31.1659 27.9658 29.082C27.9658 26.9981 29.6613 25.3027 31.7451 25.3027C33.829 25.3027 35.5244 26.9981 35.5244 29.082C35.5244 31.1659 33.829 32.8613 31.7451 32.8613C35.218 32.8613 38.044 35.6872 38.044 39.1601V41.1042C41.0792 39.0676 43.167 35.5235 43.167 31.6015C43.167 25.3496 37.997 20.2636 31.7451 20.2636Z" fill="#24A1DF"/>
</g>
<defs>
<clipPath id="clip0_668_562">
<rect width="43" height="42" fill="white" transform="translate(0.166992 0.0234375)"/>
</clipPath>
</defs>
</svg>
