<svg width="52" height="52" viewBox="0 0 52 52" fill="none" xmlns="http://www.w3.org/2000/svg">
<g clip-path="url(#clip0_668_496)">
<path d="M30.2933 42.9395C29.0199 43.9471 27.4131 44.5508 25.667 44.5508C23.9209 44.5508 22.3141 43.9471 21.0407 42.9395C18.7289 44.4512 17.2002 47.061 17.2002 50.0293V51.5235H34.1338V50.0293C34.1338 47.061 32.6051 44.4512 30.2933 42.9395Z" fill="#24A1DF"/>
<path d="M8.73341 41.5623C11.205 41.5623 13.2158 39.5515 13.2158 37.0799C13.2158 35.132 11.9666 33.4712 10.2275 32.8545V29.5096H24.1729V32.8545C22.4338 33.4712 21.1846 35.132 21.1846 37.0799C21.1846 39.5515 23.1954 41.5623 25.667 41.5623C28.1386 41.5623 30.1494 39.5515 30.1494 37.0799C30.1494 35.132 28.9002 33.4712 27.1611 32.8545V29.5096H41.1065V32.8545C39.3674 33.4712 38.1182 35.132 38.1182 37.0799C38.1182 39.5515 40.129 41.5623 42.6006 41.5623C45.0722 41.5623 47.083 39.5515 47.083 37.0799C47.083 35.132 45.8338 33.4712 44.0947 32.8545V28.0154C44.0947 27.1903 43.4258 26.5213 42.6006 26.5213H27.1611V23.4334H34.6318C35.457 23.4334 36.126 22.7644 36.126 21.9393C36.126 17.9991 33.9468 14.5685 30.7285 12.7852C29.6955 13.5578 28.4806 14.0991 27.1611 14.3351V15.9627C27.1611 16.7879 26.4922 17.4568 25.667 17.4568C24.8418 17.4568 24.1729 16.7879 24.1729 15.9627V14.3351C22.8534 14.0991 21.6385 13.5578 20.6055 12.7852C17.3872 14.5685 15.208 17.9991 15.208 21.9393C15.208 22.7644 15.877 23.4334 16.7022 23.4334H24.1729V26.5213H8.73341C7.90824 26.5213 7.23927 27.1903 7.23927 28.0154V32.8545C5.50019 33.4712 4.25098 35.132 4.25098 37.0799C4.25098 39.5515 6.2618 41.5623 8.73341 41.5623Z" fill="#24A1DF"/>
<path d="M47.227 42.9395C45.9535 43.9471 44.3467 44.5508 42.6007 44.5508C40.8546 44.5508 39.2478 43.9471 37.9744 42.9395C37.1779 43.4604 36.4744 44.1116 35.8943 44.863C36.6907 46.4385 37.1222 48.2012 37.1222 50.0293V51.5235H49.5734C50.3985 51.5235 51.0675 50.8545 51.0675 50.0293C51.0675 47.061 49.5388 44.4512 47.227 42.9395Z" fill="#24A1DF"/>
<path d="M13.3597 42.9395C12.0863 43.9471 10.4795 44.5508 8.7334 44.5508C6.98734 44.5508 5.38054 43.9471 4.10714 42.9395C1.7953 44.4512 0.266602 47.061 0.266602 50.0293C0.266602 50.8545 0.935578 51.5235 1.76074 51.5235H14.2119V50.0293C14.2119 48.2012 14.6434 46.4385 15.4398 44.8629C14.8597 44.1116 14.1561 43.4603 13.3597 42.9395Z" fill="#24A1DF"/>
<path d="M25.667 11.4804C28.6927 11.4804 31.1455 9.02766 31.1455 6.00196C31.1455 2.97625 28.6927 0.523438 25.667 0.523438C22.6413 0.523438 20.1885 2.97625 20.1885 6.00196C20.1885 9.02766 22.6413 11.4804 25.667 11.4804Z" fill="#24A1DF"/>
</g>
<defs>
<clipPath id="clip0_668_496">
<rect width="51" height="51" fill="white" transform="translate(0.166992 0.523438)"/>
</clipPath>
</defs>
</svg>
